<?xml version="1.0" standalone="no"?>
<!DOCTYPE svg PUBLIC "-//W3C//DTD SVG 20010904//EN"
 "http://www.w3.org/TR/2001/REC-SVG-20010904/DTD/svg10.dtd">
<svg version="1.0" xmlns="http://www.w3.org/2000/svg"
 width="32.000000pt" height="32.000000pt" viewBox="0 0 32.000000 32.000000"
 preserveAspectRatio="xMidYMid meet">

<g transform="translate(0.000000,32.000000) scale(0.100000,-0.100000)"
fill="#000000" stroke="none">
<path d="M95 306 c-101 -44 -125 -178 -46 -257 65 -65 157 -65 222 0 124 124
-15 327 -176 257z m114 -61 c57 -29 65 -115 14 -155 -19 -15 -38 -19 -86 -18
l-62 2 -2 51 c-4 73 4 93 40 115 38 24 59 25 96 5z"/>
<path d="M117 228 c-24 -19 -38 -64 -28 -90 4 -13 6 -28 4 -34 -6 -18 77 -25
108 -9 30 16 39 33 39 74 0 55 -78 92 -123 59z m26 -54 c-5 -14 15 -29 41 -29
11 0 21 -6 23 -12 8 -21 -39 -15 -64 9 -23 21 -30 48 -16 61 9 10 22 -13 16
-29z"/>
</g>
</svg>
